# xmcd
#
# Track frame offsets: 
#        150
#        89637
#        112017
#        146580
#
# Disc length: 2431 seconds
#
# Revision: 5
# Processed by: cddbd v1.5.2PL0 Copyright (c) Steve Scherf et al.
# Submitted via: ExactAudioCopy v0.99pb4
#
DISCID=36097d04
DTITLE=Alan Sorrenti - Aria
DYEAR=1972
DGENRE=Progressive Rock
TTITLE0=Aria
TTITLE1=Vorrei Incontrarti
TTITLE2=La Mia Mente
TTITLE3=Un Fiume Tranquillo
EXTD=YEAR: 1972 ID3G: 92
EXTT0=
EXTT1=
EXTT2=
EXTT3=
PLAYORDER=
